PathFileType	4	(X/Y/Z)	E:\3-PhD\Data\MocapData\ElaboratedData\012\pre\dynamicElaborations\RunL1\RunL1.trc
DataRate	CameraRate	NumFrames	NumMarkers	Units	OrigDataRate	OrigDataStartFrame	OrigNumFrames
200	200	4	56	mm	200	684	123
Frame#	Time	FHD			LBHD			RBHD			C7			T10			CLAV			LSHO			LUUPA			LMUPA			LDUPA			LLEP			LMEP			LRAD			LUL			LRFIN			RSHO			RUPA1			RMUPA			RDUPA			RLEP			RMEP			RRAD			RUL			RUFIN			LASI			RASI			USACR			LSACR			RSACR			LTHI1			LTHI2			LTHI3			LTHI4			LLFC			LTIB1			LTIB2			LTIB3			LTIB4			LHEE			LMT1			LMT5			LMT2			RTHI			RTHI2			RTHI3			RTHI4			RLFC			RTIB1			RTIB2			RTIB3			RTIB4			RLMAL			RHEE			RMT1			RMT2			RMT5		
		X1	Y1	Z1	X2	Y2	Z2	X3	Y3	Z3	X4	Y4	Z4	X5	Y5	Z5	X6	Y6	Z6	X7	Y7	Z7	X8	Y8	Z8	X9	Y9	Z9	X10	Y10	Z10	X11	Y11	Z11	X12	Y12	Z12	X13	Y13	Z13	X14	Y14	Z14	X15	Y15	Z15	X16	Y16	Z16	X17	Y17	Z17	X18	Y18	Z18	X19	Y19	Z19	X20	Y20	Z20	X21	Y21	Z21	X22	Y22	Z22	X23	Y23	Z23	X24	Y24	Z24	X25	Y25	Z25	X26	Y26	Z26	X27	Y27	Z27	X28	Y28	Z28	X29	Y29	Z29	X30	Y30	Z30	X31	Y31	Z31	X32	Y32	Z32	X33	Y33	Z33	X34	Y34	Z34	X35	Y35	Z35	X36	Y36	Z36	X37	Y37	Z37	X38	Y38	Z38	X39	Y39	Z39	X40	Y40	Z40	X41	Y41	Z41	X42	Y42	Z42	X43	Y43	Z43	X44	Y44	Z44	X45	Y45	Z45	X46	Y46	Z46	X47	Y47	Z47	X48	Y48	Z48	X49	Y49	Z49	X50	Y50	Z50	X51	Y51	Z51	X52	Y52	Z52	X53	Y53	Z53	X54	Y54	Z54	X55	Y55	Z55	X56	Y56	Z56	
684	3.415000	-1408.870857	1747.092232	403.101280	-1571.817206	1784.475720	320.443640	-1544.745137	1760.105310	469.421822	-1656.183588	1602.080864	407.309530	-1805.986365	1277.878070	397.352951	-1560.566666	1483.330369	354.911979	-1613.809312	1618.683215	233.166498	-1810.509952	1557.837091	134.897146	-1807.101788	1514.303072	110.272210	-1868.000094	1521.842120	115.283820	-1923.623935	1459.757373	86.844454	-1936.695607	1428.444929	175.521159	-1766.529224	1234.887454	56.600902	-1828.546807	1216.867476	9.439118	-1731.026721	1155.184217	30.504562	-1534.786892	1523.883116	533.395228	-1686.164748	1376.547508	652.177379	-1661.869333	1332.888445	650.889007	-1716.264269	1315.589709	667.133770	-1740.787250	1248.440395	677.722534	-1784.136383	1238.544027	604.449113	-1514.023745	1228.249991	523.218874	-1503.944845	1155.578371	549.338539	-1430.365813	1214.178919	493.381439	-1705.382897	1053.524125	234.840840	-1712.384539	1007.313633	457.254878	-1857.210844	1154.629957	366.486336	-1875.966004	1129.947317	334.431045	-1873.560617	1123.050777	391.783158	-1691.726071	835.324474	159.155106	-1613.554918	799.467864	166.835096	-1578.879868	829.449721	183.111617	-1602.399035	741.967039	174.065918	-1529.090985	610.312403	186.518187	-1523.094432	420.255054	251.170937	-1559.074894	386.090642	180.760069	-1530.703274	373.951031	215.434189	-1553.169515	298.544644	244.768164	-1683.817846	129.112130	261.949712	-1474.262067	111.452570	271.396537	-1503.552763	108.426248	170.654363	-1465.348362	121.468381	217.103952	-1935.078851	747.321703	487.501461	-1928.935433	681.539459	473.163348	-1901.160680	668.799400	460.539622	-1993.616409	631.188184	456.659564	-2066.266182	532.412568	435.586338	-2128.864319	411.414462	396.714571	-2228.710917	407.484375	438.692835	-2203.459866	371.819610	421.607775	-2231.213231	331.005094	391.974618	-2394.754571	259.145652	399.971703	-2451.640899	288.314383	350.608126	-2351.507845	95.813453	306.164886	-2348.997835	90.663351	349.780403	-2390.755307	104.998634	402.805812	
685	3.420000	-1384.507210	1748.046333	400.958018	-1547.311994	1785.602569	318.076552	-1520.453927	1761.453324	467.080561	-1631.907783	1603.074494	406.224559	-1780.458650	1278.793825	397.863234	-1536.132662	1484.926619	353.271280	-1590.196711	1619.496793	232.382766	-1786.722666	1559.271874	133.802013	-1783.454622	1515.413879	109.935353	-1844.388334	1523.348074	114.618072	-1900.227799	1460.937016	86.912928	-1912.776874	1429.503482	175.774206	-1740.157396	1238.084691	54.876550	-1802.000645	1219.667787	7.610585	-1704.098589	1158.388510	28.882081	-1509.460663	1525.890934	531.159096	-1659.850897	1379.982369	651.894719	-1635.582180	1336.346564	651.313991	-1690.049249	1319.242402	667.629158	-1714.759459	1251.997291	678.988182	-1758.822547	1241.460173	606.032627	-1489.209154	1233.456398	522.578798	-1478.197032	1160.876550	548.649078	-1405.714569	1220.217442	491.759457	-1679.701888	1054.392954	235.187823	-1685.570775	1008.847741	457.711867	-1831.049391	1155.531326	366.973260	-1849.678725	1130.696655	335.019629	-1847.076910	1123.883281	392.344353	-1667.744926	833.085706	160.072822	-1589.809435	796.691728	166.881513	-1554.613102	826.548439	182.402487	-1578.874463	739.223923	174.282151	-1503.883200	608.368172	185.625222	-1488.919575	418.952912	250.488270	-1522.307726	382.433465	179.942584	-1493.775233	372.098855	214.931680	-1511.929395	295.732649	244.284465	-1632.227417	118.537730	260.822822	-1422.206626	114.570062	273.350031	-1449.735109	108.535390	172.186712	-1413.171979	124.573374	219.122470	-1910.420261	750.093379	487.023687	-1904.951226	684.304535	472.263716	-1877.428990	671.252254	459.377266	-1970.346675	634.935054	455.461767	-2044.069614	537.139025	434.050654	-2109.538339	417.046211	395.281375	-2209.280219	415.509429	437.864259	-2184.904715	379.251271	420.709564	-2213.777893	339.148782	391.283988	-2378.628030	271.670152	400.395813	-2434.280312	303.658802	351.345210	-2343.125251	105.518451	307.273732	-2340.066110	100.692125	351.015788	-2381.026632	117.240650	403.737805	
686	3.425000	-1360.149278	1748.847059	398.915130	-1522.809177	1786.533976	315.781476	-1496.183757	1762.597072	464.819304	-1607.684676	1603.818394	405.147129	-1754.961757	1279.586467	398.089611	-1511.664668	1486.244778	351.665126	-1566.577800	1620.063588	231.533127	-1762.891676	1560.104479	132.695121	-1759.741424	1515.962080	109.531485	-1820.703439	1524.273156	113.916984	-1876.634030	1461.378791	86.819809	-1888.665446	1429.860715	175.846475	-1713.421222	1240.659051	53.353012	-1774.989077	1221.799745	5.897814	-1676.617197	1161.096472	27.452756	-1484.335725	1527.666763	529.053490	-1633.831104	1383.122872	651.576581	-1609.604294	1339.529238	651.701988	-1664.131551	1322.608728	668.037348	-1689.058532	1255.301647	680.144923	-1733.764358	1244.163722	607.471192	-1464.629403	1237.851909	522.068763	-1452.893239	1165.320001	548.039088	-1381.311146	1225.248706	490.362487	-1654.213612	1054.654317	235.509105	-1658.843902	1010.248924	458.205675	-1805.005848	1156.283282	367.338198	-1823.548123	1131.260435	335.546180	-1820.682934	1124.614550	392.844004	-1644.090843	830.244018	160.529169	-1566.364112	793.270883	166.569584	-1530.806478	822.902610	181.733610	-1555.682238	735.828625	173.976563	-1479.112344	605.827957	184.573516	-1455.548576	417.672570	249.769046	-1486.374060	378.961172	179.166910	-1457.724096	370.413374	214.399588	-1471.624157	293.352844	243.819503	-1581.373283	109.083137	259.831711	-1371.777963	118.672397	275.381425	-1397.294065	109.717196	173.792549	-1362.588895	128.594906	221.193505	-1884.984699	752.079196	486.540560	-1879.999769	686.295512	471.357806	-1852.702725	673.045100	458.152709	-1945.978311	637.720265	454.348704	-2020.662460	540.862752	432.537773	-2089.408864	422.156705	393.617427	-2188.985748	423.248859	436.818912	-2165.623896	386.390191	419.491640	-2195.767788	347.242904	390.142900	-2362.259747	284.872380	400.192009	-2416.623129	319.249543	351.309881	-2333.727347	116.297320	308.363806	-2330.153790	111.927524	352.208485	-2370.238071	130.681431	404.628521	
687	3.430000	-1335.797788	1749.507150	396.985865	-1498.301962	1787.284556	313.561857	-1471.939491	1763.538512	462.639122	-1583.515929	1604.325789	404.059138	-1729.521886	1280.251089	398.030977	-1487.162141	1487.301049	350.093878	-1542.946314	1620.398091	230.591326	-1739.004937	1560.309376	131.569807	-1735.948365	1515.920563	109.037099	-1796.931644	1524.584204	113.177995	-1852.814165	1461.076289	86.540935	-1864.343016	1429.500666	175.715931	-1686.323499	1242.596283	52.047391	-1747.522984	1223.235080	4.334283	-1648.579075	1163.301911	26.222663	-1459.401457	1529.209570	527.094101	-1608.136336	1385.952530	651.200419	-1583.966775	1342.423767	652.041227	-1638.537818	1325.673138	668.349521	-1663.699539	1258.340907	681.172278	-1708.963614	1246.649899	608.750608	-1440.279511	1241.395974	521.687923	-1428.045887	1168.866480	547.509706	-1357.141960	1229.216596	489.198007	-1628.894084	1054.346583	235.762704	-1632.191744	1011.455023	458.669552	-1779.100627	1156.851532	367.578040	-1797.587359	1131.597769	336.008945	-1794.394185	1125.208307	393.275255	-1620.706094	826.956985	160.435944	-1543.150497	789.378127	165.849990	-1507.399928	818.681796	181.098873	-1532.773989	731.941445	173.107706	-1454.854665	602.759002	183.414455	-1423.052932	416.405705	249.041050	-1451.408139	375.689258	178.460875	-1422.653445	368.883111	213.858430	-1432.403565	291.366565	243.387048	-1531.537154	100.721267	259.020090	-1323.197000	123.645354	277.421498	-1346.514690	111.871545	175.436793	-1313.839811	133.420025	223.247046	-1858.800944	753.194729	486.088055	-1854.111017	687.430269	470.459278	-1827.013487	674.106095	456.890077	-1920.548166	639.442208	453.360847	-1996.136442	543.548736	431.097208	-2068.534352	426.733624	391.839338	-2167.877910	430.700509	435.615072	-2145.659408	393.236398	418.032655	-2177.186080	355.269865	388.646461	-2345.602432	298.714026	399.383634	-2398.625187	335.064199	350.477860	-2323.236729	128.066766	309.404417	-2319.223175	124.265182	353.328505	-2358.393901	145.191926	405.431282	
